<svg width="28" height="25" viewBox="0 0 28 25" fill="none" xmlns="http://www.w3.org/2000/svg">
<path d="M27.9999 8.92857H23.2454L18.2502 0.433349C18.0025 0.0113536 17.465 -0.126426 17.0497 0.127312C16.6353 0.381051 16.5011 0.929465 16.7498 1.35236L21.2046 8.92857H6.79543L11.2502 1.3523C11.4989 0.929405 11.3647 0.380991 10.9503 0.127252C10.5342 -0.126486 9.99842 0.0112936 9.74975 0.433289L4.75464 8.92851H0V10.7142H1.89911L4.12206 22.814C4.35446 24.081 5.43966 25 6.70265 25H21.2974C22.5603 25 23.6455 24.081 23.8771 22.8149L26.1008 10.7142H28L27.9999 8.92857ZM22.1569 22.4862C22.08 22.9082 21.7186 23.2143 21.2973 23.2143H6.70265C6.28138 23.2143 5.91996 22.9083 5.84219 22.4854L3.67904 10.7142H24.321L22.1569 22.4862Z" fill="#F14F4F"/>
</svg>
